<svg xmlns="http://www.w3.org/2000/svg" xmlns:xlink="http://www.w3.org/1999/xlink" width="192" zoomAndPan="magnify" viewBox="0 0 144 143.999998" height="192" preserveAspectRatio="xMidYMid meet" version="1.2"><defs><clipPath id="54d75bc0a5"><path d="M 18.738281 19 L 124.488281 19 L 124.488281 124.488281 L 18.738281 124.488281 Z M 18.738281 19 "/></clipPath></defs><g id="8592844d8e"><g clip-rule="nonzero" clip-path="url(#54d75bc0a5)"><path style=" stroke:none;fill-rule:nonzero;fill:#000000;fill-opacity:1;" d="M 83.898438 66.578125 C 83.886719 65.8125 83.804688 65.054688 83.652344 64.304688 C 83.5 63.558594 83.28125 62.828125 82.992188 62.121094 C 82.707031 61.414062 82.355469 60.738281 81.941406 60.09375 C 81.527344 59.453125 81.054688 58.855469 80.53125 58.300781 C 80.003906 57.746094 79.429688 57.242188 78.8125 56.796875 C 78.191406 56.347656 77.535156 55.960938 76.84375 55.636719 C 76.152344 55.308594 75.4375 55.050781 74.695312 54.859375 C 73.957031 54.667969 73.207031 54.546875 72.441406 54.496094 C 71.679688 54.441406 70.917969 54.460938 70.160156 54.550781 C 69.402344 54.644531 68.65625 54.800781 67.929688 55.03125 C 67.199219 55.261719 66.496094 55.554688 65.824219 55.914062 C 65.148438 56.277344 64.515625 56.695312 63.917969 57.175781 C 63.320312 57.652344 62.777344 58.183594 62.277344 58.761719 C 61.78125 59.34375 61.34375 59.964844 60.960938 60.628906 C 60.582031 61.292969 60.265625 61.984375 60.011719 62.707031 C 59.761719 63.425781 59.578125 64.164062 59.464844 64.921875 C 59.347656 65.675781 59.304688 66.4375 59.335938 67.203125 C 59.363281 67.964844 59.460938 68.71875 59.628906 69.464844 C 59.796875 70.210938 60.035156 70.933594 60.335938 71.636719 C 60.640625 72.335938 61.007812 73.003906 61.4375 73.636719 C 61.863281 74.269531 62.347656 74.859375 62.886719 75.402344 C 63.421875 75.945312 64.007812 76.433594 64.636719 76.867188 C 65.265625 77.300781 65.929688 77.671875 66.628906 77.984375 C 67.328125 78.292969 68.046875 78.535156 68.792969 78.710938 L 59.023438 121.414062 C 58.875 122.195312 59.042969 122.898438 59.527344 123.53125 C 60.03125 124.15625 60.6875 124.476562 61.488281 124.488281 L 81.632812 124.488281 C 82.4375 124.476562 83.09375 124.15625 83.597656 123.53125 C 84.109375 122.90625 84.277344 122.203125 84.101562 121.414062 L 74.632812 78.710938 C 75.296875 78.535156 75.9375 78.300781 76.5625 78.015625 C 77.183594 77.734375 77.78125 77.398438 78.351562 77.015625 C 78.921875 76.636719 79.453125 76.210938 79.953125 75.738281 C 80.453125 75.269531 80.910156 74.761719 81.328125 74.21875 C 81.742188 73.671875 82.113281 73.097656 82.433594 72.492188 C 82.753906 71.886719 83.023438 71.257812 83.242188 70.609375 C 83.460938 69.960938 83.625 69.296875 83.738281 68.621094 C 83.847656 67.941406 83.902344 67.261719 83.898438 66.578125 Z M 64.359375 66.578125 C 64.378906 66.105469 64.445312 65.640625 64.554688 65.179688 C 64.667969 64.722656 64.820312 64.277344 65.015625 63.851562 C 65.214844 63.421875 65.449219 63.015625 65.726562 62.632812 C 66.003906 62.25 66.3125 61.898438 66.660156 61.578125 C 67.003906 61.253906 67.375 60.96875 67.777344 60.71875 C 68.175781 60.472656 68.597656 60.261719 69.039062 60.097656 C 69.480469 59.929688 69.933594 59.804688 70.398438 59.726562 C 70.863281 59.648438 71.332031 59.617188 71.804688 59.628906 C 72.277344 59.644531 72.742188 59.699219 73.203125 59.804688 C 73.664062 59.910156 74.109375 60.054688 74.539062 60.246094 C 74.972656 60.4375 75.378906 60.667969 75.765625 60.941406 C 76.152344 61.210938 76.511719 61.515625 76.835938 61.855469 C 77.164062 62.195312 77.453125 62.566406 77.710938 62.960938 C 77.964844 63.359375 78.179688 63.777344 78.351562 64.214844 C 78.523438 64.65625 78.652344 65.105469 78.738281 65.570312 C 78.824219 66.035156 78.863281 66.503906 78.855469 66.976562 C 78.851562 67.445312 78.796875 67.914062 78.699219 68.375 C 78.605469 68.835938 78.460938 69.285156 78.277344 69.71875 C 78.09375 70.152344 77.867188 70.566406 77.601562 70.957031 C 77.335938 71.34375 77.035156 71.707031 76.703125 72.039062 C 76.367188 72.371094 76 72.664062 75.609375 72.925781 C 75.214844 73.1875 74.800781 73.40625 74.363281 73.585938 C 73.925781 73.765625 73.476562 73.898438 73.015625 73.992188 C 72.550781 74.082031 72.082031 74.128906 71.613281 74.128906 C 71.125 74.121094 70.644531 74.0625 70.171875 73.957031 C 69.695312 73.855469 69.234375 73.703125 68.789062 73.507812 C 68.34375 73.3125 67.921875 73.078125 67.523438 72.796875 C 67.125 72.519531 66.757812 72.207031 66.421875 71.855469 C 66.085938 71.503906 65.785156 71.125 65.523438 70.714844 C 65.261719 70.304688 65.042969 69.875 64.867188 69.421875 C 64.6875 68.96875 64.558594 68.503906 64.472656 68.023438 C 64.386719 67.542969 64.351562 67.0625 64.359375 66.578125 Z M 64.664062 119.453125 L 71.613281 88.230469 L 78.5625 119.453125 Z M 57.765625 97.445312 C 57.410156 97.523438 57.058594 97.523438 56.707031 97.445312 C 55.28125 96.742188 53.914062 95.945312 52.601562 95.050781 C 51.289062 94.160156 50.042969 93.179688 48.867188 92.113281 C 47.6875 91.046875 46.59375 89.90625 45.574219 88.6875 C 44.558594 87.46875 43.628906 86.183594 42.792969 84.835938 C 41.953125 83.488281 41.210938 82.085938 40.566406 80.636719 C 39.925781 79.183594 39.386719 77.695312 38.949219 76.167969 C 38.511719 74.640625 38.183594 73.089844 37.964844 71.519531 C 37.746094 69.945312 37.632812 68.367188 37.632812 66.777344 C 37.632812 65.191406 37.746094 63.609375 37.964844 62.039062 C 38.183594 60.464844 38.511719 58.914062 38.949219 57.386719 C 39.386719 55.863281 39.925781 54.371094 40.566406 52.921875 C 41.210938 51.46875 41.953125 50.070312 42.792969 48.71875 C 43.628906 47.371094 44.558594 46.089844 45.574219 44.871094 C 46.59375 43.648438 47.6875 42.507812 48.867188 41.441406 C 50.042969 40.375 51.289062 39.394531 52.601562 38.503906 C 53.914062 37.609375 55.28125 36.8125 56.707031 36.109375 C 57.011719 35.96875 57.328125 35.894531 57.664062 35.878906 C 57.996094 35.867188 58.320312 35.917969 58.636719 36.035156 C 58.949219 36.148438 59.230469 36.320312 59.476562 36.546875 C 59.722656 36.773438 59.914062 37.039062 60.054688 37.34375 C 60.195312 37.648438 60.269531 37.96875 60.285156 38.300781 C 60.296875 38.636719 60.246094 38.960938 60.132812 39.273438 C 60.015625 39.585938 59.84375 39.867188 59.617188 40.113281 C 59.390625 40.359375 59.125 40.550781 58.820312 40.691406 C 57.613281 41.292969 56.449219 41.972656 55.335938 42.730469 C 54.21875 43.492188 53.164062 44.324219 52.164062 45.234375 C 51.164062 46.140625 50.234375 47.113281 49.367188 48.152344 C 48.503906 49.1875 47.71875 50.28125 47.003906 51.425781 C 46.292969 52.574219 45.664062 53.761719 45.117188 54.996094 C 44.574219 56.230469 44.113281 57.5 43.742188 58.796875 C 43.375 60.09375 43.09375 61.410156 42.910156 62.75 C 42.722656 64.085938 42.628906 65.429688 42.628906 66.777344 C 42.628906 68.128906 42.722656 69.46875 42.910156 70.808594 C 43.09375 72.144531 43.375 73.460938 43.742188 74.757812 C 44.113281 76.058594 44.574219 77.324219 45.117188 78.558594 C 45.664062 79.792969 46.292969 80.980469 47.003906 82.128906 C 47.71875 83.277344 48.503906 84.367188 49.367188 85.40625 C 50.234375 86.441406 51.164062 87.414062 52.164062 88.320312 C 53.164062 89.230469 54.21875 90.0625 55.335938 90.824219 C 56.449219 91.585938 57.613281 92.265625 58.820312 92.863281 C 59.125 93.003906 59.394531 93.199219 59.621094 93.449219 C 59.847656 93.695312 60.015625 93.980469 60.128906 94.296875 C 60.246094 94.613281 60.292969 94.941406 60.273438 95.277344 C 60.257812 95.613281 60.175781 95.933594 60.03125 96.238281 C 59.800781 96.636719 59.480469 96.949219 59.070312 97.167969 C 58.660156 97.386719 58.226562 97.476562 57.765625 97.445312 Z M 86.519531 97.445312 C 86.164062 97.519531 85.8125 97.519531 85.460938 97.445312 C 84.976562 97.457031 84.527344 97.335938 84.113281 97.082031 C 83.703125 96.824219 83.394531 96.476562 83.195312 96.035156 C 83.046875 95.730469 82.964844 95.410156 82.949219 95.074219 C 82.929688 94.738281 82.980469 94.414062 83.09375 94.09375 C 83.207031 93.777344 83.378906 93.496094 83.605469 93.246094 C 83.832031 93 84.097656 92.804688 84.402344 92.660156 C 85.609375 92.058594 86.769531 91.375 87.882812 90.609375 C 88.992188 89.84375 90.046875 89.007812 91.042969 88.09375 C 92.039062 87.183594 92.964844 86.207031 93.828125 85.167969 C 94.6875 84.125 95.46875 83.03125 96.175781 81.882812 C 96.882812 80.734375 97.507812 79.539062 98.050781 78.304688 C 98.59375 77.066406 99.046875 75.800781 99.410156 74.5 C 99.773438 73.199219 100.046875 71.882812 100.230469 70.542969 C 100.414062 69.207031 100.5 67.863281 100.496094 66.515625 C 100.488281 65.164062 100.390625 63.820312 100.199219 62.484375 C 100.007812 61.148438 99.722656 59.832031 99.347656 58.535156 C 98.972656 57.238281 98.511719 55.976562 97.960938 54.742188 C 97.410156 53.511719 96.773438 52.324219 96.058594 51.179688 C 95.34375 50.035156 94.550781 48.945312 93.683594 47.914062 C 92.816406 46.878906 91.878906 45.910156 90.875 45.007812 C 89.875 44.101562 88.8125 43.273438 87.695312 42.515625 C 86.578125 41.761719 85.414062 41.085938 84.203125 40.492188 C 83.898438 40.351562 83.632812 40.15625 83.40625 39.914062 C 83.179688 39.667969 83.007812 39.386719 82.890625 39.074219 C 82.773438 38.757812 82.722656 38.433594 82.738281 38.101562 C 82.75 37.765625 82.828125 37.445312 82.96875 37.140625 C 83.109375 36.839844 83.300781 36.574219 83.546875 36.347656 C 83.792969 36.117188 84.074219 35.949219 84.386719 35.832031 C 84.699219 35.714844 85.023438 35.664062 85.359375 35.679688 C 85.691406 35.691406 86.011719 35.769531 86.316406 35.910156 C 87.742188 36.609375 89.109375 37.410156 90.421875 38.300781 C 91.734375 39.195312 92.980469 40.171875 94.15625 41.238281 C 95.332031 42.304688 96.429688 43.449219 97.449219 44.667969 C 98.464844 45.886719 99.394531 47.171875 100.230469 48.519531 C 101.070312 49.867188 101.8125 51.265625 102.453125 52.71875 C 103.097656 54.171875 103.636719 55.660156 104.074219 57.1875 C 104.507812 58.714844 104.835938 60.261719 105.058594 61.835938 C 105.277344 63.410156 105.386719 64.988281 105.386719 66.578125 C 105.386719 68.164062 105.277344 69.746094 105.058594 71.316406 C 104.835938 72.890625 104.507812 74.4375 104.074219 75.964844 C 103.636719 77.492188 103.097656 78.980469 102.453125 80.433594 C 101.8125 81.886719 101.070312 83.285156 100.230469 84.632812 C 99.394531 85.980469 98.464844 87.265625 97.449219 88.484375 C 96.429688 89.703125 95.332031 90.847656 94.15625 91.914062 C 92.980469 92.980469 91.734375 93.957031 90.421875 94.851562 C 89.109375 95.742188 87.742188 96.542969 86.316406 97.242188 Z M 51.769531 112.90625 C 51.570312 113.351562 51.265625 113.707031 50.855469 113.972656 C 50.445312 114.238281 49.996094 114.367188 49.503906 114.363281 C 49.152344 114.433594 48.800781 114.433594 48.449219 114.363281 C 46.242188 113.273438 44.121094 112.039062 42.089844 110.652344 C 40.054688 109.265625 38.128906 107.746094 36.304688 106.09375 C 34.484375 104.441406 32.785156 102.667969 31.210938 100.78125 C 29.636719 98.890625 28.199219 96.898438 26.898438 94.808594 C 25.601562 92.71875 24.453125 90.550781 23.457031 88.300781 C 22.460938 86.050781 21.625 83.742188 20.949219 81.378906 C 20.277344 79.011719 19.769531 76.609375 19.425781 74.171875 C 19.085938 71.738281 18.914062 69.289062 18.914062 66.828125 C 18.914062 64.367188 19.085938 61.917969 19.425781 59.484375 C 19.769531 57.046875 20.277344 54.644531 20.949219 52.277344 C 21.625 49.914062 22.460938 47.605469 23.457031 45.355469 C 24.453125 43.105469 25.601562 40.9375 26.898438 38.847656 C 28.199219 36.757812 29.636719 34.765625 31.210938 32.875 C 32.785156 30.988281 34.484375 29.214844 36.304688 27.5625 C 38.128906 25.90625 40.054688 24.390625 42.089844 23.003906 C 44.121094 21.617188 46.242188 20.382812 48.449219 19.289062 C 48.742188 19.175781 49.050781 19.117188 49.371094 19.117188 C 49.6875 19.117188 49.996094 19.175781 50.292969 19.292969 C 50.585938 19.410156 50.851562 19.574219 51.085938 19.792969 C 51.316406 20.007812 51.503906 20.261719 51.640625 20.550781 C 51.777344 20.835938 51.855469 21.136719 51.878906 21.457031 C 51.902344 21.773438 51.867188 22.085938 51.769531 22.386719 C 51.675781 22.691406 51.527344 22.96875 51.328125 23.214844 C 51.128906 23.464844 50.890625 23.664062 50.613281 23.824219 C 48.648438 24.820312 46.761719 25.949219 44.953125 27.210938 C 43.144531 28.46875 41.429688 29.84375 39.808594 31.339844 C 38.191406 32.835938 36.683594 34.433594 35.28125 36.136719 C 33.882812 37.839844 32.609375 39.628906 31.457031 41.507812 C 30.304688 43.386719 29.285156 45.335938 28.402344 47.355469 C 27.519531 49.375 26.777344 51.445312 26.179688 53.566406 C 25.578125 55.6875 25.128906 57.839844 24.828125 60.019531 C 24.523438 62.203125 24.375 64.398438 24.375 66.601562 C 24.375 68.804688 24.523438 71 24.828125 73.183594 C 25.128906 75.363281 25.578125 77.515625 26.179688 79.636719 C 26.777344 81.757812 27.519531 83.828125 28.402344 85.847656 C 29.285156 87.867188 30.304688 89.816406 31.457031 91.695312 C 32.609375 93.574219 33.882812 95.363281 35.28125 97.066406 C 36.683594 98.769531 38.191406 100.367188 39.808594 101.863281 C 41.429688 103.359375 43.144531 104.734375 44.953125 105.992188 C 46.761719 107.253906 48.648438 108.382812 50.613281 109.378906 C 50.941406 109.519531 51.222656 109.71875 51.464844 109.980469 C 51.703125 110.242188 51.878906 110.542969 51.992188 110.878906 C 52.101562 111.21875 52.136719 111.5625 52.101562 111.917969 C 52.0625 112.269531 51.953125 112.597656 51.769531 112.90625 Z M 124.488281 66.578125 C 124.5 69.039062 124.339844 71.492188 124.007812 73.933594 C 123.675781 76.375 123.175781 78.78125 122.503906 81.152344 C 121.832031 83.523438 121 85.832031 120.003906 88.085938 C 119.007812 90.339844 117.859375 92.515625 116.558594 94.605469 C 115.257812 96.699219 113.816406 98.6875 112.238281 100.578125 C 110.65625 102.46875 108.953125 104.238281 107.121094 105.886719 C 105.292969 107.539062 103.355469 109.050781 101.3125 110.429688 C 99.269531 111.808594 97.140625 113.035156 94.925781 114.113281 C 94.574219 114.183594 94.222656 114.183594 93.871094 114.113281 C 93.378906 114.105469 92.921875 113.972656 92.503906 113.710938 C 92.089844 113.449219 91.769531 113.09375 91.554688 112.652344 C 91.414062 112.351562 91.339844 112.035156 91.328125 111.707031 C 91.3125 111.375 91.363281 111.054688 91.476562 110.742188 C 91.589844 110.433594 91.757812 110.15625 91.980469 109.910156 C 92.203125 109.664062 92.464844 109.472656 92.761719 109.328125 C 94.726562 108.328125 96.609375 107.195312 98.417969 105.933594 C 100.222656 104.671875 101.933594 103.292969 103.550781 101.792969 C 105.167969 100.296875 106.675781 98.695312 108.070312 96.988281 C 109.464844 95.285156 110.738281 93.492188 111.886719 91.609375 C 113.035156 89.730469 114.050781 87.777344 114.933594 85.757812 C 115.8125 83.738281 116.550781 81.667969 117.144531 79.542969 C 117.738281 77.421875 118.1875 75.269531 118.484375 73.085938 C 118.78125 70.902344 118.929688 68.707031 118.925781 66.503906 C 118.921875 64.300781 118.765625 62.109375 118.460938 59.925781 C 118.15625 57.742188 117.703125 55.589844 117.097656 53.472656 C 116.496094 51.351562 115.75 49.28125 114.863281 47.265625 C 113.976562 45.25 112.953125 43.300781 111.800781 41.425781 C 110.644531 39.546875 109.363281 37.757812 107.964844 36.058594 C 106.5625 34.359375 105.050781 32.761719 103.425781 31.269531 C 101.804688 29.777344 100.089844 28.40625 98.277344 27.148438 C 96.464844 25.894531 94.578125 24.769531 92.609375 23.773438 C 92.3125 23.628906 92.050781 23.4375 91.828125 23.191406 C 91.605469 22.949219 91.4375 22.667969 91.324219 22.359375 C 91.210938 22.046875 91.160156 21.726562 91.175781 21.394531 C 91.1875 21.066406 91.265625 20.75 91.402344 20.449219 C 91.550781 20.148438 91.746094 19.886719 91.996094 19.664062 C 92.246094 19.441406 92.527344 19.273438 92.84375 19.160156 C 93.160156 19.046875 93.484375 18.996094 93.816406 19.011719 C 94.152344 19.023438 94.472656 19.101562 94.777344 19.242188 C 96.992188 20.308594 99.121094 21.527344 101.164062 22.898438 C 103.207031 24.265625 105.144531 25.769531 106.976562 27.410156 C 108.808594 29.050781 110.519531 30.808594 112.101562 32.6875 C 113.6875 34.570312 115.136719 36.550781 116.441406 38.632812 C 117.75 40.714844 118.90625 42.878906 119.910156 45.125 C 120.914062 47.371094 121.753906 49.675781 122.433594 52.039062 C 123.117188 54.402344 123.628906 56.800781 123.972656 59.234375 C 124.316406 61.671875 124.488281 64.117188 124.488281 66.578125 Z M 124.488281 66.578125 "/></g></g></svg>